<svg version="1.1" viewBox="0.0 0.0 1920.0 1080.0" fill="none" stroke="none" stroke-linecap="square" stroke-miterlimit="10" xmlns:xlink="http://www.w3.org/1999/xlink" xmlns="http://www.w3.org/2000/svg"><clipPath id="p.0"><path d="m0 0l1920.0 0l0 1080.0l-1920.0 0l0 -1080.0z" clip-rule="nonzero"/></clipPath><g clip-path="url(#p.0)"><path fill="#000000" fill-opacity="0.0" d="m0 0l1920.0 0l0 1080.0l-1920.0 0z" fill-rule="evenodd"/><path fill="#0e131f" d="m0 0l1920.0 0l0 1080.0l-1920.0 0z" fill-rule="evenodd"/><path fill="#ffffff" d="m31.493439 92.632545l62.227905 -13.362648l13.362648 -62.227905l13.362648 62.227905l62.227905 13.362648l-62.227905 13.362648l-13.362648 62.227905l-13.362648 -62.227905z" fill-rule="evenodd"/><path fill="#ffffff" d="m182.67455 132.28346l46.67093 -10.02198l10.021973 -46.67093l10.021988 46.67093l46.67093 10.02198l-46.67093 10.021988l-10.021988 46.67093l-10.021973 -46.67093z" fill-rule="evenodd"/><path fill="#b7b7b7" d="m1772.8293 92.632545l0 0c0 -28.136078 22.808838 -50.94488 50.944946 -50.94488l0 0c13.511353 0 26.469482 5.3673935 36.023438 14.92141c9.554077 9.55402 14.921387 22.51205 14.921387 36.02347l0 0c0 28.136086 -22.808716 50.944878 -50.944824 50.944878l0 0c-28.136108 0 -50.944946 -22.808792 -50.944946 -50.944878z" fill-rule="evenodd"/><path fill="#666666" d="m1815.7795 62.658794l0 0c0 -9.062691 7.3468018 -16.40945 16.409424 -16.40945l0 0c4.352051 0 8.525879 1.7288475 11.6032715 4.806217c3.0773926 3.0773659 4.8061523 7.251175 4.8061523 11.603233l0 0c0 9.062687 -7.3466797 16.40945 -16.409424 16.40945l0 0c-9.062622 0 -16.409424 -7.3467636 -16.409424 -16.40945z" fill-rule="evenodd"/><path fill="#666666" d="m1782.9423 109.71916l0 0c0 -5.505455 4.4630127 -9.968506 9.968506 -9.968506l0 0c2.6437988 0 5.1793213 1.0502472 7.048828 2.9197083c1.8693848 1.8694534 2.9196777 4.4049835 2.9196777 7.0487976l0 0c0 5.5054474 -4.4630127 9.968506 -9.968506 9.968506l0 0c-5.505493 0 -9.968506 -4.4630585 -9.968506 -9.968506z" fill-rule="evenodd"/><path fill="#666666" d="m1838.3491 106.01837l0 0c0 -3.461563 2.8061523 -6.2677155 6.2677 -6.2677155l0 0c1.6622314 0 3.2564697 0.660347 4.431885 1.8357697c1.175415 1.1754303 1.8358154 2.7696457 1.8358154 4.431946l0 0c0 3.461563 -2.8061523 6.2677155 -6.2677 6.2677155l0 0c-3.4615479 0 -6.2677 -2.8061523 -6.2677 -6.2677155z" fill-rule="evenodd"/></g></svg>