<svg version="1.1" viewBox="0.0 0.0 453.54330708661416 453.54330708661416" fill="none" stroke="none" stroke-linecap="square" stroke-miterlimit="10" xmlns:xlink="http://www.w3.org/1999/xlink" xmlns="http://www.w3.org/2000/svg"><clipPath id="p.0"><path d="m0 0l453.5433 0l0 453.5433l-453.5433 0l0 -453.5433z" clip-rule="nonzero"/></clipPath><g clip-path="url(#p.0)"><path fill="#000000" fill-opacity="0.0" d="m0 0l453.5433 0l0 453.5433l-453.5433 0z" fill-rule="evenodd"/><path fill="#434343" d="m0 0l453.5433 0l0 453.5433l-453.5433 0z" fill-rule="evenodd"/><path fill="#ffffff" d="m0 226.77165l186.68372 -40.087936l40.087936 -186.68372l40.087936 186.68372l186.68372 40.087936l-186.68372 40.087936l-40.087936 186.68372l-40.087936 -186.68372z" fill-rule="evenodd"/><path fill="#999999" d="m106.50394 106.51171l120.267715 77.74665l120.267715 -77.74665l-77.74664 120.26771l77.74664 120.26773l-120.267715 -77.74667l-120.267715 77.74667l77.74666 -120.26773z" fill-rule="evenodd"/><path fill="#434343" d="m113.382065 226.7754l93.34186 -20.04396l20.043976 -93.34186l20.04396 93.34186l93.34186 20.04396l-93.34186 20.043976l-20.04396 93.34187l-20.043976 -93.34187z" fill-rule="evenodd"/><path fill="#434343" d="m166.64168 166.6338l60.12599 38.86824l60.125977 -38.86824l-38.86824 60.12599l38.86824 60.125977l-60.125977 -38.86824l-60.12599 38.86824l38.86824 -60.125977z" fill-rule="evenodd"/><path fill="#000000" fill-opacity="0.0" d="m113.385826 207.87401l226.77164 0l0 37.795288l-226.77164 0z" fill-rule="evenodd"/><path fill="#ffffff" d="m180.47133 235.59915q-1.046875 0 -2.21875 -0.0625q-1.171875 -0.046875 -2.28125 -0.140625q-1.09375 -0.109375 -1.921875 -0.21875l0 -3.828125q0.890625 0.078125 1.734375 0.140625q0.859375 0.0625 1.609375 0.09375q0.765625 0.015625 1.296875 0.015625q0.953125 0 1.4375 -0.03125q0.484375 -0.046875 0.640625 -0.171875q0.125 -0.09375 0.171875 -0.203125q0.046875 -0.125 0.0625 -0.296875q0.015625 -0.171875 0.015625 -0.375q0 -0.359375 -0.078125 -0.546875q-0.0625 -0.203125 -0.28125 -0.3125q-0.21875 -0.109375 -0.65625 -0.171875q-0.421875 -0.078125 -1.140625 -0.171875l-2.8125 -0.359375q-0.75 -0.09375 -1.234375 -0.484375q-0.46875 -0.40625 -0.75 -1.0625q-0.265625 -0.65625 -0.375 -1.578125q-0.109375 -0.9375 -0.109375 -2.0625q0 -1.625 0.5 -2.625q0.5 -1.0 1.390625 -1.515625q0.90625 -0.53125 2.078125 -0.71875q1.1875 -0.203125 2.546875 -0.203125q1.015625 0 2.078125 0.078125q1.078125 0.0625 2.015625 0.171875q0.953125 0.109375 1.578125 0.25l0 3.765625q-0.59375 -0.0625 -1.421875 -0.125q-0.828125 -0.0625 -1.703125 -0.09375q-0.859375 -0.046875 -1.625 -0.046875q-0.578125 0 -0.9375 0.03125q-0.359375 0.03125 -0.546875 0.140625q-0.203125 0.125 -0.28125 0.3125q-0.078125 0.171875 -0.078125 0.4375q0 0.40625 0.0625 0.625q0.078125 0.21875 0.359375 0.296875q0.296875 0.078125 0.921875 0.171875l2.515625 0.3125q0.625 0.078125 1.171875 0.25q0.546875 0.171875 1.03125 0.515625q0.484375 0.34375 0.84375 1.046875q0.171875 0.28125 0.28125 0.734375q0.109375 0.453125 0.171875 1.078125q0.078125 0.609375 0.078125 1.390625q0 1.515625 -0.3125 2.53125q-0.296875 1.0 -0.859375 1.609375q-0.5625 0.59375 -1.328125 0.90625q-0.765625 0.3125 -1.6875 0.40625q-0.921875 0.09375 -1.953125 0.09375zm15.256577 0q-2.1875 0 -3.5625 -0.265625q-1.375 -0.265625 -2.15625 -0.828125q-0.765625 -0.578125 -1.109375 -1.5625q-0.34375 -0.984375 -0.421875 -2.40625q-0.0625 -1.4375 -0.0625 -3.375q0 -1.953125 0.0625 -3.375q0.078125 -1.4375 0.421875 -2.421875q0.34375 -0.984375 1.109375 -1.546875q0.78125 -0.578125 2.15625 -0.84375q1.375 -0.265625 3.5625 -0.265625q2.1875 0 3.5625 0.265625q1.375 0.265625 2.15625 0.84375q0.78125 0.5625 1.109375 1.546875q0.34375 0.984375 0.421875 2.421875q0.09375 1.421875 0.09375 3.375q0 1.9375 -0.09375 3.375q-0.078125 1.421875 -0.421875 2.40625q-0.328125 0.984375 -1.109375 1.5625q-0.78125 0.5625 -2.15625 0.828125q-1.375 0.265625 -3.5625 0.265625zm0 -4.0q0.5 0 0.828125 -0.046875q0.328125 -0.046875 0.5 -0.265625q0.1875 -0.21875 0.25 -0.6875q0.078125 -0.46875 0.09375 -1.296875q0.03125 -0.84375 0.03125 -2.140625q0 -1.296875 -0.03125 -2.140625q-0.015625 -0.84375 -0.09375 -1.3125q-0.0625 -0.46875 -0.25 -0.671875q-0.171875 -0.21875 -0.5 -0.265625q-0.328125 -0.0625 -0.828125 -0.0625q-0.5 0 -0.828125 0.0625q-0.328125 0.046875 -0.5 0.265625q-0.15625 0.203125 -0.25 0.671875q-0.078125 0.46875 -0.09375 1.3125q-0.015625 0.84375 -0.015625 2.140625q0 1.296875 0.015625 2.140625q0.015625 0.828125 0.09375 1.296875q0.09375 0.46875 0.25 0.6875q0.171875 0.21875 0.5 0.265625q0.328125 0.046875 0.828125 0.046875zm9.570572 3.8125l0 -16.515625l5.625 0l0 12.296875l5.515625 0l0 4.21875l-11.140625 0zm11.448212 0l4.59375 -16.515625l7.796875 0l4.578125 16.515625l-5.5625 0l-0.59375 -2.46875l-4.78125 0l-0.578125 2.46875l-5.453125 0zm6.9375 -6.3125l2.9375 0l-1.375 -5.6875l-0.21875 0l-1.34375 5.6875zm11.134201 6.3125l0 -16.515625l8.6875 0q1.65625 0 2.671875 0.34375q1.03125 0.328125 1.546875 1.015625q0.53125 0.6875 0.71875 1.734375q0.1875 1.03125 0.1875 2.4375q0 1.125 -0.140625 2.046875q-0.125 0.921875 -0.546875 1.625q-0.40625 0.6875 -1.21875 1.140625l2.265625 6.171875l-5.765625 0l-1.96875 -6.53125l1.390625 0.796875q-0.234375 0.171875 -0.5 0.203125q-0.25 0.03125 -0.65625 0.03125l-1.046875 0l0 5.5l-5.625 0zm5.625 -9.21875l1.0 0q0.515625 0 0.8125 -0.03125q0.3125 -0.03125 0.484375 -0.1875q0.171875 -0.15625 0.21875 -0.5q0.046875 -0.359375 0.046875 -0.953125q0 -0.578125 -0.03125 -0.90625q-0.015625 -0.34375 -0.15625 -0.515625q-0.140625 -0.171875 -0.46875 -0.21875q-0.328125 -0.0625 -0.921875 -0.0625l-0.984375 0l0 3.375zm8.991196 9.21875l4.59375 -16.515625l7.7968597 0l4.578125 16.515625l-5.5625 0l-0.59375 -2.46875l-4.7812347 0l-0.578125 2.46875l-5.453125 0zm6.9374847 -6.3125l2.9375 0l-1.375 -5.6875l-0.21875 0l-1.34375 5.6875zm11.134216 6.3125l0 -16.515625l12.09375 0l0 4.015625l-6.5 0l0 2.203125l5.375 0l0 3.90625l-5.375 0l0 2.375l6.5 0l0 4.015625l-12.09375 0z" fill-rule="nonzero"/></g></svg>